<svg width="18" height="17" viewBox="0 0 18 17" fill="none" xmlns="http://www.w3.org/2000/svg">
<path fill-rule="evenodd" clip-rule="evenodd" d="M6.10502 2.12034C5.6522 1.98897 5.3163 2.0242 5.07196 2.15655C4.82761 2.28891 4.61461 2.55099 4.47727 3.00205C4.33894 3.45639 4.29173 4.06295 4.35895 4.79532C4.36984 4.914 4.38367 5.03524 4.40044 5.15883C4.99353 5.00811 5.63088 4.88907 6.30058 4.80596C6.76484 4.1555 7.25181 3.56893 7.74584 3.06029C7.72109 3.04022 7.69637 3.02042 7.67168 3.00089C7.09498 2.54448 6.56114 2.25268 6.10502 2.12034ZM8.58146 2.28009C8.51265 2.2224 8.44387 2.16634 8.37516 2.11197C7.72679 1.59885 7.06278 1.21787 6.42089 1.03164C5.77571 0.844451 5.11344 0.844851 4.53203 1.15979C3.95063 1.47472 3.5885 2.02922 3.39283 2.67188C3.19815 3.31126 3.15451 4.07555 3.2301 4.89894C3.24782 5.09194 3.27222 5.28974 3.30324 5.49175C3.11087 5.56068 2.92533 5.63343 2.74721 5.70976C1.98721 6.03548 1.33596 6.43787 0.866483 6.91358C0.394599 7.39172 0.0795135 7.97424 0.0795135 8.63547C0.0795135 9.29669 0.394598 9.87922 0.866483 10.3574C1.33596 10.8331 1.98721 11.2355 2.74721 11.5612C2.92533 11.6375 3.11085 11.7103 3.30323 11.7792C3.27221 11.9812 3.24779 12.179 3.23007 12.3721C3.15449 13.1954 3.19813 13.9597 3.3928 14.5992C3.58847 15.2418 3.9506 15.7962 4.532 16.1112C5.11342 16.4262 5.77569 16.4265 6.42087 16.2394C7.06276 16.0531 7.72677 15.6721 8.37514 15.159C8.44386 15.1046 8.51263 15.0486 8.58146 14.9909C8.65028 15.0486 8.71905 15.1046 8.78776 15.159C9.43615 15.6721 10.1002 16.0531 10.742 16.2394C11.3872 16.4265 12.0494 16.4262 12.6309 16.1112C13.2123 15.7962 13.5745 15.2418 13.7701 14.5992C13.9648 13.9597 14.0084 13.1954 13.9328 12.3721C13.9151 12.179 13.8907 11.9812 13.8597 11.7792C14.0521 11.7103 14.2376 11.6375 14.4158 11.5612C15.1758 11.2355 15.8271 10.8331 16.2966 10.3574C16.7684 9.87922 17.0835 9.29669 17.0835 8.63547C17.0835 7.97424 16.7684 7.39172 16.2966 6.91358C15.8271 6.43787 15.1758 6.03548 14.4158 5.70976C14.2376 5.63341 14.0521 5.56066 13.8597 5.4917C13.8906 5.28971 13.9151 5.09193 13.9328 4.89894C14.0084 4.07555 13.9648 3.31126 13.7701 2.67188C13.5745 2.02922 13.2123 1.47472 12.6309 1.15979C12.0494 0.844851 11.3872 0.844451 10.742 1.03164C10.1001 1.21787 9.43612 1.59885 8.78774 2.11197C8.71904 2.16634 8.65026 2.2224 8.58146 2.28009ZM8.58146 3.82707C8.32662 4.08799 8.07158 4.37397 7.81941 4.68289C8.07068 4.67294 8.32489 4.66787 8.58152 4.66787C8.83811 4.66787 9.09228 4.67294 9.34348 4.68289C9.09133 4.37397 8.83629 4.08799 8.58146 3.82707ZM10.8623 4.80594C10.3981 4.15549 9.91109 3.56892 9.41707 3.06029C9.44182 3.04022 9.46654 3.02042 9.49123 3.00089C10.0679 2.54448 10.6018 2.25268 11.0579 2.12034C11.5107 1.98897 11.8466 2.0242 12.0909 2.15655C12.3353 2.28891 12.5483 2.55099 12.6856 3.00205C12.8239 3.45639 12.8712 4.06295 12.804 4.79532C12.7931 4.91399 12.7792 5.03521 12.7625 5.1588C12.1694 5.00809 11.5321 4.88905 10.8623 4.80594ZM10.2245 5.87682C9.69699 5.82761 9.1473 5.80147 8.58152 5.80147C8.01569 5.80147 7.46596 5.82761 6.93839 5.87683C6.64385 6.31726 6.35903 6.78817 6.08954 7.28568C5.84413 7.73874 5.62414 8.19038 5.42973 8.63547C5.62415 9.08058 5.84415 9.53223 6.08956 9.98531C6.35904 10.4828 6.64386 10.9537 6.93838 11.3941C7.46595 11.4433 8.01569 11.4695 8.58152 11.4695C9.14732 11.4695 9.697 11.4433 10.2245 11.3941C10.5191 10.9537 10.8039 10.4828 11.0733 9.98531C11.3188 9.53223 11.5387 9.08058 11.7332 8.63547C11.5387 8.19039 11.3188 7.73874 11.0734 7.28568C10.8039 6.78816 10.5191 6.31725 10.2245 5.87682ZM12.2916 7.16691C12.2199 7.0265 12.1461 6.88607 12.0702 6.74576C11.9479 6.52011 11.8224 6.299 11.6939 6.08282C11.9894 6.13906 12.274 6.20295 12.5466 6.27376C12.475 6.56383 12.39 6.86218 12.2916 7.16691ZM12.2916 10.104C12.2199 10.2445 12.1461 10.3849 12.0701 10.5252C11.9479 10.7509 11.8224 10.972 11.6939 11.1881C11.9894 11.1319 12.274 11.068 12.5466 10.9972C12.475 10.7071 12.39 10.4088 12.2916 10.104ZM13.6298 10.6559C13.4654 10.0056 13.2422 9.3266 12.9628 8.63546C13.2422 7.94434 13.4654 7.26536 13.6298 6.61502C13.7466 6.65916 13.8597 6.70476 13.9693 6.75171C14.6453 7.04142 15.1561 7.37184 15.4897 7.70987C15.8209 8.04546 15.9499 8.35758 15.9499 8.63547C15.9499 8.91335 15.8209 9.22548 15.4897 9.56107C15.1561 9.8991 14.6453 10.2295 13.9693 10.5192C13.8597 10.5662 13.7466 10.6118 13.6298 10.6559ZM12.7625 12.1121C12.1694 12.2628 11.5321 12.3819 10.8623 12.465C10.3981 13.1155 9.9111 13.702 9.41707 14.2107C9.44182 14.2307 9.46655 14.2506 9.49125 14.2701C10.068 14.7265 10.6018 15.0184 11.0579 15.1507C11.5107 15.282 11.8466 15.2468 12.0909 15.1145C12.3353 14.9821 12.5483 14.72 12.6856 14.2689C12.824 13.8146 12.8712 13.208 12.804 12.4757C12.7931 12.357 12.7792 12.2357 12.7625 12.1121ZM8.58146 13.4439C8.8363 13.1829 9.09134 12.8969 9.34351 12.588C9.09229 12.598 8.83811 12.6031 8.58152 12.6031C8.32489 12.6031 8.07067 12.598 7.81939 12.588C8.07157 12.8969 8.32661 13.1829 8.58146 13.4439ZM5.46895 11.1881C5.34053 10.9719 5.21501 10.7509 5.0928 10.5252C5.01679 10.3849 4.94295 10.2445 4.87129 10.104C4.77297 10.4087 4.68795 10.7071 4.61628 10.9971C4.88885 11.068 5.17356 11.1318 5.46895 11.1881ZM4.40043 12.1121C4.99351 12.2628 5.63087 12.3818 6.30056 12.4649C6.76481 13.1154 7.25181 13.702 7.74585 14.2107C7.72109 14.2307 7.69635 14.2506 7.67166 14.2701C7.09495 14.7265 6.56112 15.0184 6.105 15.1507C5.65217 15.282 5.31628 15.2468 5.07194 15.1145C4.82759 14.9821 4.61459 14.72 4.47725 14.2689C4.33892 13.8146 4.2917 13.208 4.35893 12.4757C4.36983 12.357 4.38366 12.2357 4.40043 12.1121ZM3.5331 10.6559C3.69747 10.0055 3.92065 9.32657 4.20009 8.63547C3.92065 7.94436 3.69748 7.26539 3.5331 6.61507C3.41645 6.6592 3.30328 6.70477 3.19375 6.75171C2.51777 7.04142 2.00693 7.37184 1.67332 7.70987C1.34212 8.04546 1.21311 8.35758 1.21311 8.63547C1.21311 8.91335 1.34212 9.22548 1.67332 9.56107C2.00693 9.8991 2.51777 10.2295 3.19375 10.5192C3.30328 10.5662 3.41645 10.6117 3.5331 10.6559ZM4.61628 6.2738C4.68795 6.56385 4.77297 6.86219 4.87129 7.16689C4.94293 7.0265 5.01678 6.88608 5.09277 6.74576C5.215 6.52012 5.34053 6.29902 5.46896 6.08284C5.17357 6.13909 4.88886 6.20298 4.61628 6.2738ZM6.88112 8.63547C6.88112 7.69636 7.64241 6.93507 8.58152 6.93507C9.52063 6.93507 10.2819 7.69636 10.2819 8.63547C10.2819 9.57457 9.52063 10.3359 8.58152 10.3359C7.64241 10.3359 6.88112 9.57457 6.88112 8.63547ZM8.58152 8.06867C8.26849 8.06867 8.01472 8.32243 8.01472 8.63547C8.01472 8.94851 8.26849 9.20227 8.58152 9.20227C8.89456 9.20227 9.14832 8.94851 9.14832 8.63547C9.14832 8.32243 8.89456 8.06867 8.58152 8.06867Z" fill="white"/>
</svg>
