<svg width="16" height="16" viewBox="0 0 16 16" fill="none" xmlns="http://www.w3.org/2000/svg">
<path d="M13.0765 8.14133V7.97263C13.0765 7.22726 12.4723 6.62303 11.727 6.62303H10.546C9.70749 6.62303 9.02773 7.30279 9.02773 8.14133C9.02773 8.97987 9.70749 9.65964 10.546 9.65964H11.5582C12.3967 9.65964 13.0765 10.3394 13.0765 11.1779C13.0765 12.0165 12.3967 12.6962 11.5582 12.6962H10.546C9.70749 12.6962 9.02773 12.0165 9.02773 11.1779M7.00332 6.11693V11.1779C7.00332 12.0165 6.32356 12.6962 5.48502 12.6962C4.64648 12.6962 3.96671 12.0165 3.96671 11.1779M0.930099 0.549805H15.101V14.7207H0.930099V0.549805Z" stroke="white"/>
</svg>
