<svg width="40" height="47" viewBox="0 0 40 47" fill="none" xmlns="http://www.w3.org/2000/svg">
<mask id="path-1-inside-1_120_71" fill="white">
<path d="M20.9962 0.120117C20.6943 0.120117 20.3852 0.136082 20.0659 0.159303C11.8876 0.808053 14.0573 9.46386 13.9354 12.3506C13.7845 14.4594 13.3549 16.1299 11.9035 18.1951C10.1866 20.2285 7.78318 23.5172 6.64243 26.9395C6.10688 28.549 5.84854 30.2064 6.09092 31.7637C6.01545 31.8232 5.93998 31.8915 5.87176 32.0192C5.3725 32.5417 5.00096 33.1846 4.59313 33.6447C4.20853 34.0293 3.65702 34.1599 3.05036 34.4168C2.4466 34.6795 1.77317 34.9378 1.37986 35.739C1.2057 36.1032 1.11426 36.4951 1.12297 36.9044C1.12297 37.2817 1.17667 37.675 1.22892 37.9392C1.34358 38.7099 1.45533 39.3455 1.30439 39.8143C0.821094 41.1278 0.768845 42.0276 1.1012 42.6865C1.43937 43.3367 2.13601 43.5936 2.91393 43.852C4.48718 44.2366 6.6105 44.1147 8.2897 45.0072C10.0792 45.9143 11.9021 46.3076 13.3534 45.923C14.365 45.6966 15.2271 45.0232 15.6886 44.0943C16.8221 44.0871 18.0688 43.5719 20.0586 43.4441C21.4113 43.3295 23.105 43.9652 25.0469 43.8287C25.0991 44.0943 25.1674 44.2133 25.2733 44.4789V44.4862C26.028 45.9898 27.4271 46.6705 28.9249 46.5573C30.4125 46.4368 32.0003 45.5225 33.2847 44.0261C34.5096 42.5516 36.543 41.9304 37.8884 41.1234C38.5618 40.7359 39.106 40.2164 39.1438 39.4675C39.1888 38.6968 38.7592 37.8957 37.7679 36.8071V36.617L37.7607 36.6098C37.4283 36.2252 37.2774 35.575 37.1032 34.8203C36.9363 34.0409 36.7549 33.3007 36.1511 32.7942C36.0292 32.6882 35.9087 32.665 35.781 32.5373C35.6751 32.4618 35.5445 32.4168 35.4167 32.4096C36.2484 29.9365 35.9233 27.4808 35.0757 25.2646C34.0481 22.5361 32.2412 20.1559 30.8726 18.5231C29.3298 16.5798 27.819 14.7366 27.8494 12.0081C27.9017 7.84126 28.3095 0.140436 20.9933 0.124471L20.9962 0.120117ZM22.0165 6.71066H22.047C22.4548 6.71066 22.8089 6.83257 23.1732 7.08946C23.5433 7.35216 23.8162 7.73241 24.0193 8.12427C24.224 8.62353 24.3314 9.00814 24.3444 9.52191C24.3444 9.48563 24.3517 9.44644 24.3517 9.41016V9.61335C24.3517 9.59738 24.3444 9.58432 24.3444 9.56836L24.3372 9.52191C24.3372 9.99215 24.24 10.4609 24.0513 10.8905C23.9598 11.1329 23.8249 11.3535 23.6347 11.5407C23.5825 11.5117 23.5288 11.4812 23.4678 11.458C23.2646 11.3666 23.0832 11.3375 22.9163 11.2026C22.7814 11.1489 22.6377 11.1039 22.4925 11.0734C22.584 10.9616 22.7726 10.8165 22.8481 10.6888C22.9468 10.4464 22.9991 10.1823 23.015 9.91087V9.87169C23.0223 9.6148 22.9758 9.35065 22.8931 9.10102C22.8104 8.84414 22.7059 8.71351 22.5462 8.45808C22.3793 8.32891 22.2211 8.20119 22.0237 8.20119H21.9947C21.8133 8.20119 21.6537 8.25344 21.4882 8.45808C21.3068 8.63804 21.1704 8.85865 21.0949 9.10102C20.9889 9.35065 20.928 9.61335 20.9207 9.87169V9.91087C20.9207 10.0836 20.9367 10.2577 20.957 10.4319C20.5797 10.3042 20.1109 10.1663 19.7785 10.0386C19.7626 9.91087 19.748 9.7817 19.748 9.65398V9.6148C19.735 9.10247 19.8308 8.5945 20.0369 8.12717C20.1951 7.70338 20.4824 7.33909 20.8685 7.09817C21.1994 6.84999 21.6 6.71357 22.0165 6.71357V6.71066ZM16.2866 6.82532H16.3548C16.6277 6.82532 16.8773 6.91675 17.1269 7.08221C17.4128 7.33184 17.6421 7.64097 17.7931 7.98059C17.9672 8.36809 18.0645 8.75996 18.095 9.27373V9.28099C18.1022 9.53788 18.1022 9.67575 18.0877 9.79622V9.95441C18.0282 9.97038 17.9818 9.98489 17.9295 9.9994C17.6349 10.1054 17.4012 10.2563 17.1647 10.3869C17.1879 10.2128 17.1879 10.0386 17.1719 9.87169V9.84121C17.1501 9.58577 17.0964 9.4566 17.0137 9.19826C16.9542 9.00233 16.8396 8.82091 16.6886 8.67723C16.5972 8.5945 16.4695 8.54806 16.3417 8.55532H16.2953C16.1603 8.56257 16.0457 8.63079 15.9412 8.81221C15.812 8.95589 15.7365 9.13731 15.7075 9.33469C15.6538 9.53788 15.6378 9.75703 15.6611 9.97763V9.9994C15.6843 10.265 15.7293 10.3942 15.8193 10.6496C15.902 10.9065 16.0094 11.0371 16.1371 11.1648C16.1603 11.1881 16.1763 11.204 16.2053 11.2098C16.0703 11.3245 15.9789 11.3477 15.8672 11.4754C15.7902 11.5291 15.709 11.5973 15.6103 11.6133C15.4056 11.3695 15.2315 11.1068 15.0805 10.8339C14.8933 10.4261 14.7946 9.98779 14.7786 9.54078C14.7482 9.10393 14.8019 8.66417 14.9296 8.24763C15.0442 7.87028 15.2257 7.51471 15.4811 7.21283C15.7307 6.95594 15.9804 6.82822 16.2895 6.82822L16.2866 6.82532ZM18.9396 10.1286C19.5826 10.1286 20.3547 10.249 21.2908 10.8992C21.8583 11.2867 22.3053 11.4217 23.3329 11.7991C23.8321 12.0647 24.118 12.3216 24.2617 12.5784V12.3216C24.3996 12.6075 24.4141 12.9326 24.2922 13.2272C24.0498 13.8324 23.2937 14.4753 22.2298 14.8599V14.8672C21.7146 15.1241 21.2618 15.5101 20.7321 15.767C20.1965 16.0239 19.5898 16.3345 18.7742 16.2823C18.4796 16.2953 18.1864 16.2518 17.9048 16.1531C17.6944 16.0413 17.4825 15.9107 17.2851 15.7685C16.9078 15.5116 16.5827 15.1255 16.0994 14.8687V14.8614H16.0921C15.3127 14.3854 14.8977 13.8701 14.7612 13.4855C14.6335 12.9645 14.754 12.5799 15.14 12.323C15.5696 12.0661 15.8715 11.8005 16.0689 11.6728C16.2721 11.5291 16.349 11.4754 16.41 11.4232H16.4172V11.4159C16.7423 11.0226 17.2546 10.5088 18.0427 10.2505C18.3054 10.1823 18.6102 10.13 18.9411 10.13L18.9396 10.1286ZM24.3517 14.2693C25.0483 17.0137 26.6738 20.9977 27.7174 22.9251C28.2689 23.9599 29.3719 26.1369 29.8479 28.7769C30.1498 28.7696 30.4822 28.8132 30.8392 28.9046C32.0932 25.6695 29.7884 22.1921 28.7377 21.2241C28.3066 20.8395 28.2848 20.5811 28.4953 20.5811C29.6375 21.6087 31.1324 23.6217 31.6766 25.9105C31.9263 26.9453 31.9887 28.0512 31.7231 29.1455C31.8508 29.1978 31.98 29.266 32.1164 29.2732C34.112 30.3109 34.8522 31.0889 34.4966 32.2514V32.1687C34.3848 32.1629 34.2629 32.1687 34.1497 32.1687H34.1192C34.4153 31.263 33.7651 30.5664 32.0569 29.7957C30.2877 29.025 28.8741 29.1455 28.6317 30.6955C28.6157 30.7783 28.6099 30.8233 28.6027 30.9611C28.4648 31.0061 28.3298 31.0584 28.1949 31.0816C27.3632 31.6041 26.9162 32.382 26.6608 33.3805C26.4112 34.4153 26.3357 35.617 26.2675 37.0016C26.221 37.6518 25.9351 38.6257 25.6463 39.6155C22.7436 41.6938 18.7147 42.5936 15.2997 40.2657C15.0791 39.8883 14.8222 39.54 14.5203 39.2309C14.3766 38.9885 14.1952 38.7781 13.9848 38.5879C14.3389 38.5879 14.6422 38.5284 14.8846 38.4588C15.1633 38.3238 15.3839 38.0887 15.4956 37.81C15.7003 37.2948 15.4956 36.4632 14.8222 35.5561C14.1589 34.6577 13.024 33.636 11.368 32.6171C10.1445 31.8465 9.45658 30.9321 9.13873 29.9176C8.82089 28.8828 8.86588 27.8161 9.10826 26.7363C9.5843 24.6652 10.802 22.6479 11.5813 21.3837C11.7845 21.2633 11.6496 21.6493 10.7875 23.2748C10.0226 24.7262 8.57997 28.1049 10.5509 30.7275C10.6278 28.8161 11.0502 26.9264 11.8063 25.1645C12.8934 22.6928 15.1778 18.3853 15.3592 14.9688C15.4506 15.0443 15.7757 15.2344 15.918 15.3621C16.3345 15.619 16.6509 16.0051 17.0602 16.2619C17.468 16.6466 17.9818 16.9121 18.7539 16.9121C18.8293 16.9194 18.8976 16.9194 18.9643 16.9194C19.7582 16.9194 20.3794 16.6625 20.8917 16.4042C21.4505 16.1386 21.9062 15.754 22.3271 15.6263H22.3343C23.2342 15.3694 23.9526 14.8469 24.3532 14.2722L24.3517 14.2693ZM28.5853 31.6041C28.6607 32.7666 29.2514 34.0148 30.2935 34.2702C31.427 34.5271 33.067 33.6273 33.7549 32.7898L34.1628 32.7739C34.7738 32.7579 35.2818 32.7898 35.8013 33.2891L35.8086 33.2963C36.2092 33.681 36.3993 34.3239 36.5647 34.9901C36.7317 35.768 36.8594 36.5009 37.3586 37.0524C38.2947 38.0727 38.6053 38.8056 38.5908 39.2599C38.5603 39.765 38.2265 40.0219 37.6228 40.4079C36.4051 41.1873 34.244 41.7838 32.8682 43.4485C31.6723 44.8766 30.2151 45.6545 28.9278 45.7532C27.6433 45.8592 26.5316 45.3686 25.8814 44.016L25.8742 44.0087C25.4663 43.2366 25.6405 42.0276 25.9801 40.7417C26.3212 39.4486 26.8117 38.1351 26.8799 37.0684C26.9482 35.6853 27.0236 34.4835 27.25 33.5518C27.4837 32.652 27.848 32.009 28.4982 31.6549L28.5809 31.6084L28.5853 31.6041ZM7.65401 31.7013H7.67723C7.78318 31.7013 7.88187 31.7086 7.97911 31.7318C8.70478 31.8377 9.34773 32.3747 9.96019 33.1831L11.7207 36.4037L11.7279 36.4109C12.1967 37.4385 13.1865 38.466 14.0254 39.5792C14.8657 40.7345 15.5159 41.7693 15.4405 42.6169V42.6328C15.3258 44.0682 14.5102 44.8461 13.2634 45.1349C12.0153 45.3918 10.3216 45.1349 8.62931 44.2351C6.75563 43.2003 4.52492 43.328 3.0968 43.0697C2.38709 42.942 1.91831 42.6764 1.6977 42.2918C1.48726 41.9072 1.47855 41.1263 1.94008 39.9101V39.9043C2.16649 39.2541 2.00249 38.4457 1.88783 37.7346C1.78188 36.9624 1.72963 36.3645 1.97056 35.9189C2.27969 35.2687 2.74122 35.1483 3.30724 34.8841C3.87472 34.6272 4.54814 34.4995 5.07643 33.977H5.08369V33.9698C5.57569 33.4574 5.94723 32.8145 6.37683 32.3515C6.74112 31.9582 7.10976 31.7013 7.65401 31.7013ZM21.5114 14.1415C20.6711 14.5261 19.6813 15.1763 18.6305 15.1763C17.5797 15.1763 16.7554 14.664 16.1589 14.2765C15.857 14.0138 15.6146 13.7555 15.4332 13.6263C15.1154 13.3709 15.1531 12.9776 15.2895 12.9776C15.5 13.0066 15.5392 13.2403 15.6741 13.3709C15.8643 13.4986 16.0907 13.7555 16.3693 14.0138C16.9368 14.3984 17.6929 14.9195 18.6291 14.9195C19.5681 14.9195 20.6711 14.3984 21.3358 14.0138C21.7132 13.7569 22.1965 13.3709 22.5898 13.114C22.8917 12.8484 22.8786 12.5915 23.1253 12.5915C23.3749 12.622 23.195 12.8484 22.8467 13.2344C22.4911 13.5 21.9468 13.8846 21.51 14.1415H21.5114ZM19.4171 11.0734V11.0371C19.4099 10.9979 19.4389 10.9544 19.4766 10.9384C19.6116 10.8557 19.8235 10.8847 19.9759 10.9457C20.0964 10.9457 20.285 11.0734 20.2705 11.2084C20.2546 11.2998 20.1036 11.3375 20.0049 11.3375C19.9004 11.3375 19.8235 11.2548 19.7335 11.2026C19.6348 11.1721 19.4462 11.1866 19.4171 11.0734ZM18.3504 11.0734C18.3112 11.1881 18.1298 11.1721 18.0326 11.2026C17.9411 11.2548 17.8657 11.3375 17.7597 11.3375C17.661 11.3375 17.5028 11.2984 17.4941 11.2026C17.481 11.0734 17.661 10.9457 17.7829 10.9457C17.9411 10.8833 18.1371 10.8542 18.288 10.9384C18.3185 10.9544 18.3577 10.9979 18.3417 11.0371V11.0734H18.3504Z"/>
</mask>
<path d="M20.9962 0.120117C20.6943 0.120117 20.3852 0.136082 20.0659 0.159303C11.8876 0.808053 14.0573 9.46386 13.9354 12.3506C13.7845 14.4594 13.3549 16.1299 11.9035 18.1951C10.1866 20.2285 7.78318 23.5172 6.64243 26.9395C6.10688 28.549 5.84854 30.2064 6.09092 31.7637C6.01545 31.8232 5.93998 31.8915 5.87176 32.0192C5.3725 32.5417 5.00096 33.1846 4.59313 33.6447C4.20853 34.0293 3.65702 34.1599 3.05036 34.4168C2.4466 34.6795 1.77317 34.9378 1.37986 35.739C1.2057 36.1032 1.11426 36.4951 1.12297 36.9044C1.12297 37.2817 1.17667 37.675 1.22892 37.9392C1.34358 38.7099 1.45533 39.3455 1.30439 39.8143C0.821094 41.1278 0.768845 42.0276 1.1012 42.6865C1.43937 43.3367 2.13601 43.5936 2.91393 43.852C4.48718 44.2366 6.6105 44.1147 8.2897 45.0072C10.0792 45.9143 11.9021 46.3076 13.3534 45.923C14.365 45.6966 15.2271 45.0232 15.6886 44.0943C16.8221 44.0871 18.0688 43.5719 20.0586 43.4441C21.4113 43.3295 23.105 43.9652 25.0469 43.8287C25.0991 44.0943 25.1674 44.2133 25.2733 44.4789V44.4862C26.028 45.9898 27.4271 46.6705 28.9249 46.5573C30.4125 46.4368 32.0003 45.5225 33.2847 44.0261C34.5096 42.5516 36.543 41.9304 37.8884 41.1234C38.5618 40.7359 39.106 40.2164 39.1438 39.4675C39.1888 38.6968 38.7592 37.8957 37.7679 36.8071V36.617L37.7607 36.6098C37.4283 36.2252 37.2774 35.575 37.1032 34.8203C36.9363 34.0409 36.7549 33.3007 36.1511 32.7942C36.0292 32.6882 35.9087 32.665 35.781 32.5373C35.6751 32.4618 35.5445 32.4168 35.4167 32.4096C36.2484 29.9365 35.9233 27.4808 35.0757 25.2646C34.0481 22.5361 32.2412 20.1559 30.8726 18.5231C29.3298 16.5798 27.819 14.7366 27.8494 12.0081C27.9017 7.84126 28.3095 0.140436 20.9933 0.124471L20.9962 0.120117ZM22.0165 6.71066H22.047C22.4548 6.71066 22.8089 6.83257 23.1732 7.08946C23.5433 7.35216 23.8162 7.73241 24.0193 8.12427C24.224 8.62353 24.3314 9.00814 24.3444 9.52191C24.3444 9.48563 24.3517 9.44644 24.3517 9.41016V9.61335C24.3517 9.59738 24.3444 9.58432 24.3444 9.56836L24.3372 9.52191C24.3372 9.99215 24.24 10.4609 24.0513 10.8905C23.9598 11.1329 23.8249 11.3535 23.6347 11.5407C23.5825 11.5117 23.5288 11.4812 23.4678 11.458C23.2646 11.3666 23.0832 11.3375 22.9163 11.2026C22.7814 11.1489 22.6377 11.1039 22.4925 11.0734C22.584 10.9616 22.7726 10.8165 22.8481 10.6888C22.9468 10.4464 22.9991 10.1823 23.015 9.91087V9.87169C23.0223 9.6148 22.9758 9.35065 22.8931 9.10102C22.8104 8.84414 22.7059 8.71351 22.5462 8.45808C22.3793 8.32891 22.2211 8.20119 22.0237 8.20119H21.9947C21.8133 8.20119 21.6537 8.25344 21.4882 8.45808C21.3068 8.63804 21.1704 8.85865 21.0949 9.10102C20.9889 9.35065 20.928 9.61335 20.9207 9.87169V9.91087C20.9207 10.0836 20.9367 10.2577 20.957 10.4319C20.5797 10.3042 20.1109 10.1663 19.7785 10.0386C19.7626 9.91087 19.748 9.7817 19.748 9.65398V9.6148C19.735 9.10247 19.8308 8.5945 20.0369 8.12717C20.1951 7.70338 20.4824 7.33909 20.8685 7.09817C21.1994 6.84999 21.6 6.71357 22.0165 6.71357V6.71066ZM16.2866 6.82532H16.3548C16.6277 6.82532 16.8773 6.91675 17.1269 7.08221C17.4128 7.33184 17.6421 7.64097 17.7931 7.98059C17.9672 8.36809 18.0645 8.75996 18.095 9.27373V9.28099C18.1022 9.53788 18.1022 9.67575 18.0877 9.79622V9.95441C18.0282 9.97038 17.9818 9.98489 17.9295 9.9994C17.6349 10.1054 17.4012 10.2563 17.1647 10.3869C17.1879 10.2128 17.1879 10.0386 17.1719 9.87169V9.84121C17.1501 9.58577 17.0964 9.4566 17.0137 9.19826C16.9542 9.00233 16.8396 8.82091 16.6886 8.67723C16.5972 8.5945 16.4695 8.54806 16.3417 8.55532H16.2953C16.1603 8.56257 16.0457 8.63079 15.9412 8.81221C15.812 8.95589 15.7365 9.13731 15.7075 9.33469C15.6538 9.53788 15.6378 9.75703 15.6611 9.97763V9.9994C15.6843 10.265 15.7293 10.3942 15.8193 10.6496C15.902 10.9065 16.0094 11.0371 16.1371 11.1648C16.1603 11.1881 16.1763 11.204 16.2053 11.2098C16.0703 11.3245 15.9789 11.3477 15.8672 11.4754C15.7902 11.5291 15.709 11.5973 15.6103 11.6133C15.4056 11.3695 15.2315 11.1068 15.0805 10.8339C14.8933 10.4261 14.7946 9.98779 14.7786 9.54078C14.7482 9.10393 14.8019 8.66417 14.9296 8.24763C15.0442 7.87028 15.2257 7.51471 15.4811 7.21283C15.7307 6.95594 15.9804 6.82822 16.2895 6.82822L16.2866 6.82532ZM18.9396 10.1286C19.5826 10.1286 20.3547 10.249 21.2908 10.8992C21.8583 11.2867 22.3053 11.4217 23.3329 11.7991C23.8321 12.0647 24.118 12.3216 24.2617 12.5784V12.3216C24.3996 12.6075 24.4141 12.9326 24.2922 13.2272C24.0498 13.8324 23.2937 14.4753 22.2298 14.8599V14.8672C21.7146 15.1241 21.2618 15.5101 20.7321 15.767C20.1965 16.0239 19.5898 16.3345 18.7742 16.2823C18.4796 16.2953 18.1864 16.2518 17.9048 16.1531C17.6944 16.0413 17.4825 15.9107 17.2851 15.7685C16.9078 15.5116 16.5827 15.1255 16.0994 14.8687V14.8614H16.0921C15.3127 14.3854 14.8977 13.8701 14.7612 13.4855C14.6335 12.9645 14.754 12.5799 15.14 12.323C15.5696 12.0661 15.8715 11.8005 16.0689 11.6728C16.2721 11.5291 16.349 11.4754 16.41 11.4232H16.4172V11.4159C16.7423 11.0226 17.2546 10.5088 18.0427 10.2505C18.3054 10.1823 18.6102 10.13 18.9411 10.13L18.9396 10.1286ZM24.3517 14.2693C25.0483 17.0137 26.6738 20.9977 27.7174 22.9251C28.2689 23.9599 29.3719 26.1369 29.8479 28.7769C30.1498 28.7696 30.4822 28.8132 30.8392 28.9046C32.0932 25.6695 29.7884 22.1921 28.7377 21.2241C28.3066 20.8395 28.2848 20.5811 28.4953 20.5811C29.6375 21.6087 31.1324 23.6217 31.6766 25.9105C31.9263 26.9453 31.9887 28.0512 31.7231 29.1455C31.8508 29.1978 31.98 29.266 32.1164 29.2732C34.112 30.3109 34.8522 31.0889 34.4966 32.2514V32.1687C34.3848 32.1629 34.2629 32.1687 34.1497 32.1687H34.1192C34.4153 31.263 33.7651 30.5664 32.0569 29.7957C30.2877 29.025 28.8741 29.1455 28.6317 30.6955C28.6157 30.7783 28.6099 30.8233 28.6027 30.9611C28.4648 31.0061 28.3298 31.0584 28.1949 31.0816C27.3632 31.6041 26.9162 32.382 26.6608 33.3805C26.4112 34.4153 26.3357 35.617 26.2675 37.0016C26.221 37.6518 25.9351 38.6257 25.6463 39.6155C22.7436 41.6938 18.7147 42.5936 15.2997 40.2657C15.0791 39.8883 14.8222 39.54 14.5203 39.2309C14.3766 38.9885 14.1952 38.7781 13.9848 38.5879C14.3389 38.5879 14.6422 38.5284 14.8846 38.4588C15.1633 38.3238 15.3839 38.0887 15.4956 37.81C15.7003 37.2948 15.4956 36.4632 14.8222 35.5561C14.1589 34.6577 13.024 33.636 11.368 32.6171C10.1445 31.8465 9.45658 30.9321 9.13873 29.9176C8.82089 28.8828 8.86588 27.8161 9.10826 26.7363C9.5843 24.6652 10.802 22.6479 11.5813 21.3837C11.7845 21.2633 11.6496 21.6493 10.7875 23.2748C10.0226 24.7262 8.57997 28.1049 10.5509 30.7275C10.6278 28.8161 11.0502 26.9264 11.8063 25.1645C12.8934 22.6928 15.1778 18.3853 15.3592 14.9688C15.4506 15.0443 15.7757 15.2344 15.918 15.3621C16.3345 15.619 16.6509 16.0051 17.0602 16.2619C17.468 16.6466 17.9818 16.9121 18.7539 16.9121C18.8293 16.9194 18.8976 16.9194 18.9643 16.9194C19.7582 16.9194 20.3794 16.6625 20.8917 16.4042C21.4505 16.1386 21.9062 15.754 22.3271 15.6263H22.3343C23.2342 15.3694 23.9526 14.8469 24.3532 14.2722L24.3517 14.2693ZM28.5853 31.6041C28.6607 32.7666 29.2514 34.0148 30.2935 34.2702C31.427 34.5271 33.067 33.6273 33.7549 32.7898L34.1628 32.7739C34.7738 32.7579 35.2818 32.7898 35.8013 33.2891L35.8086 33.2963C36.2092 33.681 36.3993 34.3239 36.5647 34.9901C36.7317 35.768 36.8594 36.5009 37.3586 37.0524C38.2947 38.0727 38.6053 38.8056 38.5908 39.2599C38.5603 39.765 38.2265 40.0219 37.6228 40.4079C36.4051 41.1873 34.244 41.7838 32.8682 43.4485C31.6723 44.8766 30.2151 45.6545 28.9278 45.7532C27.6433 45.8592 26.5316 45.3686 25.8814 44.016L25.8742 44.0087C25.4663 43.2366 25.6405 42.0276 25.9801 40.7417C26.3212 39.4486 26.8117 38.1351 26.8799 37.0684C26.9482 35.6853 27.0236 34.4835 27.25 33.5518C27.4837 32.652 27.848 32.009 28.4982 31.6549L28.5809 31.6084L28.5853 31.6041ZM7.65401 31.7013H7.67723C7.78318 31.7013 7.88187 31.7086 7.97911 31.7318C8.70478 31.8377 9.34773 32.3747 9.96019 33.1831L11.7207 36.4037L11.7279 36.4109C12.1967 37.4385 13.1865 38.466 14.0254 39.5792C14.8657 40.7345 15.5159 41.7693 15.4405 42.6169V42.6328C15.3258 44.0682 14.5102 44.8461 13.2634 45.1349C12.0153 45.3918 10.3216 45.1349 8.62931 44.2351C6.75563 43.2003 4.52492 43.328 3.0968 43.0697C2.38709 42.942 1.91831 42.6764 1.6977 42.2918C1.48726 41.9072 1.47855 41.1263 1.94008 39.9101V39.9043C2.16649 39.2541 2.00249 38.4457 1.88783 37.7346C1.78188 36.9624 1.72963 36.3645 1.97056 35.9189C2.27969 35.2687 2.74122 35.1483 3.30724 34.8841C3.87472 34.6272 4.54814 34.4995 5.07643 33.977H5.08369V33.9698C5.57569 33.4574 5.94723 32.8145 6.37683 32.3515C6.74112 31.9582 7.10976 31.7013 7.65401 31.7013ZM21.5114 14.1415C20.6711 14.5261 19.6813 15.1763 18.6305 15.1763C17.5797 15.1763 16.7554 14.664 16.1589 14.2765C15.857 14.0138 15.6146 13.7555 15.4332 13.6263C15.1154 13.3709 15.1531 12.9776 15.2895 12.9776C15.5 13.0066 15.5392 13.2403 15.6741 13.3709C15.8643 13.4986 16.0907 13.7555 16.3693 14.0138C16.9368 14.3984 17.6929 14.9195 18.6291 14.9195C19.5681 14.9195 20.6711 14.3984 21.3358 14.0138C21.7132 13.7569 22.1965 13.3709 22.5898 13.114C22.8917 12.8484 22.8786 12.5915 23.1253 12.5915C23.3749 12.622 23.195 12.8484 22.8467 13.2344C22.4911 13.5 21.9468 13.8846 21.51 14.1415H21.5114ZM19.4171 11.0734V11.0371C19.4099 10.9979 19.4389 10.9544 19.4766 10.9384C19.6116 10.8557 19.8235 10.8847 19.9759 10.9457C20.0964 10.9457 20.285 11.0734 20.2705 11.2084C20.2546 11.2998 20.1036 11.3375 20.0049 11.3375C19.9004 11.3375 19.8235 11.2548 19.7335 11.2026C19.6348 11.1721 19.4462 11.1866 19.4171 11.0734ZM18.3504 11.0734C18.3112 11.1881 18.1298 11.1721 18.0326 11.2026C17.9411 11.2548 17.8657 11.3375 17.7597 11.3375C17.661 11.3375 17.5028 11.2984 17.4941 11.2026C17.481 11.0734 17.661 10.9457 17.7829 10.9457C17.9411 10.8833 18.1371 10.8542 18.288 10.9384C18.3185 10.9544 18.3577 10.9979 18.3417 11.0371V11.0734H18.3504Z" fill="url(#paint0_linear_120_71)" stroke="url(#paint1_linear_120_71)" stroke-width="2" mask="url(#path-1-inside-1_120_71)"/>
<defs>
<linearGradient id="paint0_linear_120_71" x1="20.0182" y1="0.120117" x2="20.0182" y2="46.5694" gradientUnits="userSpaceOnUse">
<stop stop-color="#EE7AF9"/>
<stop offset="1" stop-color="#F9C866"/>
</linearGradient>
<linearGradient id="paint1_linear_120_71" x1="20.0182" y1="0.120117" x2="20.0182" y2="46.5694" gradientUnits="userSpaceOnUse">
<stop stop-color="#EE7AF9"/>
<stop offset="1" stop-color="#F9C866"/>
</linearGradient>
</defs>
</svg>
