<svg width="64" height="43" viewBox="0 0 64 43" fill="none" xmlns="http://www.w3.org/2000/svg">
<path d="M43.3207 4.38738C43.0153 4.38738 42.8118 4.42848 42.6063 4.47937V4.51069H42.6376C42.7805 4.77492 43.0153 4.98043 43.1973 5.22508C43.3402 5.50105 43.4616 5.78485 43.5947 6.06083L43.6358 6.01972C43.8804 5.84553 44.0037 5.57151 44.0037 5.15266C43.902 5.02936 43.8804 4.89822 43.7904 4.7847C43.6886 4.61051 43.4635 4.52047 43.3207 4.38738ZM15.563 38.8211H13.1478C13.0656 34.7442 12.8209 30.91 12.4452 27.3126H12.4256L8.74597 38.8211H6.90029L3.25003 27.3126H3.21872C2.95449 30.7573 2.78029 34.6013 2.70983 38.8211H0.507935C0.650813 33.6834 1.00703 28.8725 1.57855 24.3865H4.57508L8.06093 34.9889H8.08051L11.5977 24.3865H14.4513C15.0835 29.6476 15.4613 34.4585 15.5728 38.8211H15.563ZM26.0421 28.1698C25.0635 33.5112 23.758 37.3963 22.1589 39.8115C20.8946 41.6768 19.5186 42.6143 18.0194 42.6143C17.6221 42.6143 17.1327 42.491 16.5417 42.2463V40.9624C16.8372 41.0035 17.1739 41.0328 17.5516 41.0328C18.2542 41.0328 18.816 40.8293 19.2446 40.4515C19.7535 39.9818 20.0099 39.4533 20.0099 38.872C20.0099 38.4649 19.8161 37.6488 19.409 36.4059L16.7687 28.1698H19.1448L21.0414 34.3273C21.47 35.7346 21.654 36.7034 21.5718 37.2632C22.6209 34.4898 23.345 31.4521 23.7541 28.1698H26.0421ZM58.2133 38.8211H51.3434V24.3865H53.6569V37.0479H58.2133V38.8211ZM49.5486 39.1695L46.8985 37.8641C47.1334 37.6703 47.3565 37.457 47.562 37.2123C48.6933 35.897 49.255 33.93 49.255 31.3406C49.255 26.559 47.38 24.1751 43.6279 24.1751C41.792 24.1751 40.3554 24.776 39.3259 25.9895C38.2044 27.3145 37.6329 29.2718 37.6329 31.8514C37.6329 34.39 38.132 36.2454 39.1322 37.4374C40.0501 38.4982 41.426 39.0384 43.2717 39.0384C43.9548 39.0384 44.587 38.9562 45.1585 38.784L48.615 40.8019L49.5623 39.1715L49.5486 39.1695ZM40.9563 35.9264C40.3652 34.9889 40.0795 33.4798 40.0795 31.3993C40.0795 27.7608 41.1814 25.9464 43.3931 25.9464C44.5459 25.9464 45.4012 26.3848 45.9414 27.2519C46.5227 28.1992 46.8182 29.6887 46.8182 31.7477C46.8182 35.4077 45.7065 37.2534 43.5046 37.2534C42.342 37.2534 41.4965 36.815 40.9465 35.9479L40.9563 35.9264ZM36.6328 34.8264C36.6328 36.0497 36.1845 37.0596 35.2764 37.8327C34.38 38.6176 33.1861 39.0149 31.6672 39.0149C30.2502 39.0149 28.8938 38.5667 27.559 37.6683L28.1814 36.4255C29.3225 36.997 30.352 37.2828 31.2914 37.2828C32.1585 37.2828 32.8416 37.089 33.3309 36.7112C33.8202 36.3237 34.1157 35.7835 34.1157 35.1004C34.1157 34.2432 33.5149 33.5092 32.4227 32.8985C31.4128 32.3388 29.3851 31.1859 29.3851 31.1859C28.2832 30.3815 27.743 29.5243 27.743 28.1072C27.743 26.9348 28.1501 25.9973 28.9662 25.2829C29.7922 24.5489 30.8413 24.1927 32.1468 24.1927C33.4816 24.1927 34.7049 24.5489 35.8068 25.2633L35.247 26.5062C34.3095 26.1089 33.3818 25.9053 32.4736 25.9053C31.7299 25.9053 31.1583 26.0893 30.761 26.4455C30.3637 26.8017 30.1191 27.2499 30.1191 27.8117C30.1191 28.6689 30.7317 29.4029 31.8512 30.0331C32.8807 30.5929 34.9495 31.777 34.9495 31.777C36.0808 32.5717 36.6425 33.4289 36.6425 34.8245L36.6328 34.8264ZM61.11 19.5462C59.7126 19.5149 58.6322 19.6578 57.726 20.0453C57.4715 20.1471 57.0527 20.1471 57.0116 20.474C57.1544 20.6168 57.174 20.8419 57.2973 21.0337C57.5107 21.3802 57.8688 21.8499 58.2055 22.0946C58.5734 22.3803 58.9394 22.6661 59.3172 22.9107C60.0003 23.3296 60.7656 23.5742 61.4369 23.9911C61.8146 24.2358 62.2022 24.5509 62.578 24.8073C62.7717 24.9404 62.8931 25.1753 63.1377 25.2555V25.2046C63.0144 25.052 62.9851 24.8269 62.8618 24.6448C62.6876 24.4706 62.5153 24.318 62.3411 24.1457C61.8323 23.4627 61.2099 22.8716 60.5268 22.3823C59.967 22.0045 58.7437 21.4741 58.5186 20.8321L58.4873 20.791C58.8651 20.7597 59.3133 20.6168 59.6793 20.5151C60.2704 20.3624 60.8204 20.3918 61.433 20.2391C61.7089 20.1686 61.983 20.0864 62.2687 19.9944V19.8418C61.9536 19.5267 61.7187 19.098 61.3919 18.8025C60.5052 18.0372 59.5266 17.2837 58.5167 16.6613C57.9667 16.305 57.2738 16.08 56.6925 15.7844C56.489 15.6826 56.1328 15.6317 56.0192 15.4575C55.7041 15.07 55.5201 14.5709 55.2951 14.111C54.796 13.1519 54.3067 12.093 53.8682 11.0733C53.5531 10.3902 53.3691 9.71695 52.9816 9.08477C51.1868 6.11759 49.2296 4.32475 46.233 2.56128C45.5911 2.19331 44.816 2.04065 43.9998 1.84688C43.5614 1.82731 43.1328 1.79599 42.6943 1.77642C42.4086 1.65311 42.1346 1.32821 41.8899 1.1638C40.8917 0.531614 38.3219 -0.824755 37.5977 0.970037C37.1279 2.11111 38.2905 3.22282 38.6996 3.79434C38.9951 4.20144 39.3729 4.65161 39.5862 5.09982C39.7095 5.40515 39.7389 5.72222 39.8622 6.03734C40.1382 6.80262 40.4024 7.65793 40.7704 8.37233C40.9641 8.74029 41.1677 9.12587 41.4123 9.45273C41.5552 9.64649 41.7999 9.7287 41.8508 10.0438C41.6061 10.4 41.5865 10.9207 41.4534 11.3493C40.8213 13.3261 41.0659 15.7629 41.9525 17.221C42.2383 17.6594 42.8998 18.6185 43.7884 18.2505C44.5733 17.9354 44.4011 16.9451 44.6242 16.0682C44.6751 15.8549 44.6438 15.7218 44.7475 15.5789V15.62C45.0019 16.1093 45.2466 16.579 45.4717 17.0684C46.0021 17.9256 46.9494 18.8123 47.7342 19.4033C48.1531 19.7185 48.478 20.2606 48.9986 20.4524V20.4015H48.9575C48.8459 20.2489 48.7031 20.1765 48.5602 20.0551C48.2451 19.74 47.8967 19.3525 47.6422 19.006C46.9181 18.0274 46.2663 16.947 45.6948 15.8353C45.409 15.2853 45.1644 14.6942 44.9412 14.154C44.8395 13.9505 44.8395 13.6334 44.6653 13.5316C44.4011 13.9094 44.0135 14.2343 43.8295 14.7138C43.4929 15.4575 43.4616 16.3853 43.3304 17.3443C43.2698 17.3639 43.2991 17.3443 43.2698 17.3854C42.71 17.2426 42.5162 16.671 42.3107 16.1817C41.7803 14.9389 41.6981 12.9503 42.1483 11.5235C42.2716 11.1555 42.7902 10.0047 42.5867 9.65824C42.4751 9.32159 42.1287 9.12782 41.9447 8.8636C41.7098 8.53674 41.475 8.11984 41.3125 7.75188C40.8937 6.77326 40.6901 5.69286 40.2321 4.71424C40.0286 4.26603 39.6606 3.79629 39.3651 3.3794C39.0284 2.90966 38.6624 2.57498 38.406 2.02303C38.314 1.82927 38.1927 1.51415 38.3356 1.30864C38.3669 1.16576 38.4373 1.11487 38.5802 1.07377C38.8053 0.880004 39.4571 1.12466 39.6821 1.23622C40.3241 1.49066 40.8643 1.73532 41.4045 2.10328C41.6492 2.27747 41.9134 2.60238 42.2305 2.69437H42.5984C43.1582 2.81767 43.7806 2.72568 44.3012 2.88813C45.229 3.18368 46.0647 3.61231 46.8182 4.08009C49.1024 5.53824 50.9774 7.59726 52.2516 10.0536C52.4649 10.4509 52.5569 10.8189 52.7507 11.2358C53.1069 12.1028 53.5668 12.9679 53.9328 13.7939C54.2988 14.6198 54.6472 15.4556 55.1757 16.1387C55.4399 16.5066 56.4812 16.6984 56.9587 16.8824C57.3052 17.0449 57.8453 17.1877 58.1507 17.3717C58.7516 17.7397 59.3426 18.1566 59.9044 18.5637C60.1901 18.7575 61.0572 19.1959 61.1081 19.5423L61.11 19.5462Z" fill="url(#paint0_linear_120_65)"/>
<defs>
<linearGradient id="paint0_linear_120_65" x1="31.8228" y1="0.0756836" x2="31.8228" y2="42.6143" gradientUnits="userSpaceOnUse">
<stop stop-color="#EE7AF9"/>
<stop offset="1" stop-color="#F9C866"/>
</linearGradient>
</defs>
</svg>
