<svg width="53" height="48" viewBox="0 0 53 48" fill="none" xmlns="http://www.w3.org/2000/svg">
<path d="M26.8229 19.319C24.2713 19.319 22.1933 21.397 22.1933 23.9487C22.1933 26.5004 24.2713 28.5784 26.8229 28.5784C29.3746 28.5784 31.4526 26.5004 31.4526 23.9487C31.4526 21.397 29.3746 19.319 26.8229 19.319ZM13.8618 33.1496L12.8399 32.8966C5.23515 30.9694 0.868286 27.7089 0.868286 23.9406C0.868286 20.1723 5.23678 16.9118 12.8399 14.9846L13.8618 14.7316L14.1489 15.7454C14.9179 18.3977 15.9058 20.9834 17.098 23.4848L17.317 23.9406L17.098 24.4045C15.9074 26.8962 14.9179 29.4819 14.1489 32.1439L13.8618 33.1496ZM12.3678 17.3497C6.58804 18.9719 3.04036 21.4635 3.04036 23.9406C3.04036 26.4176 6.58966 28.8995 12.3678 30.5314C13.0783 28.275 13.9316 26.0786 14.9276 23.9406C13.93 21.8026 13.0767 19.6062 12.3678 17.3497ZM39.784 33.1496L39.4969 32.1358C38.728 29.4835 37.7401 26.8978 36.5478 24.4045L36.3288 23.9406L36.5478 23.4767C37.7385 20.985 38.728 18.3993 39.4969 15.7373L39.784 14.7316L40.806 14.9846C48.4107 16.9118 52.7775 20.1723 52.7775 23.9406C52.7775 27.7089 48.4091 30.9694 40.806 32.8966L39.784 33.1496ZM38.7182 23.9406C39.7581 26.1873 40.6194 28.3934 41.278 30.5314C47.0659 28.9012 50.6055 26.4176 50.6055 23.9406C50.6055 21.4635 47.0562 18.9816 41.278 17.3497C40.5675 19.5964 39.7143 21.8026 38.7182 23.9406ZM12.35 17.3416L12.0628 16.3278C9.92483 8.7912 10.5753 3.38452 13.8456 1.49957C17.0559 -0.351322 22.2014 1.83698 27.5999 7.37991L28.3348 8.1326L27.5999 8.88528C25.6825 10.8789 23.9338 13.025 22.362 15.3058L22.0667 15.7195L21.559 15.7616C18.7964 15.9806 16.0582 16.4202 13.3719 17.0805L12.35 17.3416ZM16.4557 3.00494C15.8733 3.00494 15.3575 3.12335 14.926 3.37641C12.7798 4.61899 12.4003 8.92746 13.878 14.7397C16.1848 14.2238 18.5158 13.8605 20.8744 13.6496C22.2257 11.7224 23.7132 9.88129 25.3094 8.14882C21.9386 4.86231 18.7445 3.00494 16.4557 3.00494ZM37.1983 47.0386C37.1902 47.0386 37.1902 47.0386 37.1983 47.0386C34.1145 47.0386 30.1516 44.7238 26.0459 40.4996L25.3111 39.747L26.0459 38.9943C27.9633 37.0006 29.712 34.8545 31.2839 32.5737L31.571 32.1601L32.0787 32.1098C34.8413 31.8989 37.5795 31.4593 40.2739 30.791L41.2959 30.5379L41.583 31.5518C43.721 39.0884 43.0705 44.4869 39.8002 46.3703C39.0054 46.8261 38.1099 47.0564 37.1983 47.0386ZM28.3348 39.7307C31.7056 43.0172 34.8997 44.8762 37.1885 44.8762H37.1967C37.7709 44.8762 38.2868 44.7497 38.7182 44.5048C40.8644 43.2622 41.2537 38.9537 39.7662 33.1415C37.4594 33.6574 35.1187 34.0207 32.7698 34.2235C31.4185 36.1587 29.931 37.9902 28.3348 39.7307ZM41.2959 17.3416L40.2739 17.0805C37.5795 16.4219 34.8413 15.9823 32.0787 15.7616L31.571 15.7195L31.2839 15.3058C29.712 13.025 27.9633 10.8789 26.0459 8.88528L25.3111 8.1326L26.0459 7.37991C31.4445 1.83698 36.59 -0.351322 39.8002 1.49957C43.0705 3.3829 43.721 8.7912 41.583 16.3278L41.2959 17.3416ZM32.7714 13.6496C35.2387 13.8783 37.5876 14.2417 39.7678 14.7397C41.2553 8.92746 40.866 4.61737 38.7199 3.37641C36.5819 2.14357 32.5605 4.03501 28.3364 8.15044C29.9326 9.89102 31.412 11.7241 32.7714 13.6512V13.6496ZM16.4557 47.0386C15.5424 47.0548 14.6388 46.8277 13.8456 46.3719C10.5753 44.4885 9.92483 39.0884 12.0628 31.5534L12.35 30.5396L13.3719 30.7926C15.8733 31.4269 18.6277 31.8649 21.559 32.1114L22.0667 32.1617L22.3539 32.5754C23.9257 34.8561 25.6744 37.0023 27.5918 38.9959L28.3267 39.7486L27.5918 40.5013C23.4942 44.7254 19.5313 47.0402 16.4557 47.0402V47.0386ZM13.8797 33.1415C12.3921 38.9537 12.7815 43.2638 14.9276 44.5048C17.0656 45.7214 21.0788 43.8462 25.3111 39.7307C23.7148 37.9902 22.2273 36.1571 20.8761 34.2219C18.5191 34.0191 16.1864 33.6574 13.8797 33.1415ZM26.8229 34.5009C25.0402 34.5009 23.2152 34.4246 21.3822 34.2722L20.8744 34.23L20.5792 33.8082C19.5491 32.3207 18.5677 30.7926 17.6642 29.2207C16.7509 27.6489 15.9155 26.0445 15.1385 24.4045L14.9195 23.9406L15.1385 23.4767C15.9155 21.8383 16.7525 20.2323 17.6642 18.6604C18.5596 17.1145 19.5394 15.5686 20.5792 14.073L20.8744 13.6512L21.3822 13.609C25.0061 13.3041 28.6479 13.3041 32.2637 13.609L32.7714 13.6512L33.0666 14.073C35.1365 17.0464 36.9614 20.1983 38.5074 23.4767L38.7264 23.9406L38.5074 24.4045C36.9614 27.6829 35.1446 30.8348 33.0666 33.8082L32.7714 34.23L32.2637 34.2722C30.4387 34.4246 28.6057 34.5009 26.8229 34.5009ZM22.0748 32.152C25.2689 32.3969 28.3769 32.3969 31.5791 32.152C33.3619 29.5419 34.95 26.7956 36.3272 23.939C34.9581 21.084 33.37 18.3376 31.571 15.7259C28.411 15.481 25.2348 15.481 22.0748 15.7259C20.2759 18.336 18.6861 21.0823 17.3187 23.939C18.6959 26.794 20.284 29.5403 22.0748 32.152Z" fill="url(#paint0_linear_120_61)"/>
<defs>
<linearGradient id="paint0_linear_120_61" x1="26.8229" y1="0.85498" x2="26.8229" y2="47.0402" gradientUnits="userSpaceOnUse">
<stop stop-color="#F9C866"/>
<stop offset="1" stop-color="#EE7AF9"/>
</linearGradient>
</defs>
</svg>
