<svg width="47" height="51" viewBox="0 0 47 51" fill="none" xmlns="http://www.w3.org/2000/svg">
<path d="M16.5838 18.7758L16.56 37.6703C16.56 41.292 12.6525 43.6032 9.48353 41.84L3.50302 38.5281C2.74057 38.0992 2.28784 37.3129 2.28784 36.4552V15.4401C2.28784 14.5823 2.7644 13.7722 3.50302 13.3672L22.5643 2.78816C23.2791 2.38311 24.1607 2.38311 24.8755 2.78816L43.9368 13.3672C44.6992 13.7961 45.1519 14.5823 45.1519 15.4401V36.4552C45.1519 37.3129 44.6754 38.123 43.9368 38.5281L24.8755 49.1071C24.1607 49.5122 23.2791 49.5122 22.5643 49.1071L18.9665 47.3678" stroke="url(#paint0_linear_120_57)" stroke-width="3" stroke-miterlimit="10" stroke-linecap="round" stroke-linejoin="round"/>
<path opacity="0.4" d="M35.6451 22.9455C35.6451 20.6344 33.7866 18.7759 31.4754 18.7759H27.3058C24.9946 18.7759 23.1361 20.6344 23.1361 22.9455C23.1361 25.2567 24.9946 27.1152 27.3058 27.1152H31.4754C33.7866 27.1152 35.6451 28.9737 35.6451 31.2849C35.6451 33.596 33.7866 35.4545 31.4754 35.4545H27.3058C24.9946 35.4545 23.1361 33.596 23.1361 31.2849" stroke="#EE7AF9" stroke-width="3" stroke-miterlimit="10" stroke-linecap="round" stroke-linejoin="round"/>
<defs>
<linearGradient id="paint0_linear_120_57" x1="23.7199" y1="2.48437" x2="23.7199" y2="49.4109" gradientUnits="userSpaceOnUse">
<stop stop-color="#EE7AF9"/>
<stop offset="1" stop-color="#F9C866"/>
</linearGradient>
</defs>
</svg>
