<svg width="47" height="31" viewBox="0 0 47 31" fill="none" xmlns="http://www.w3.org/2000/svg">
<path fill-rule="evenodd" clip-rule="evenodd" d="M23.7754 1.92334C17.9579 1.92334 14.322 5.03983 12.8677 11.2728C15.0492 8.15629 17.5944 6.98763 20.5031 7.76672C22.1627 8.21126 23.3489 9.50124 24.6618 10.9292C26.8007 13.2553 29.2762 15.9475 34.6831 15.9475C40.5006 15.9475 44.1363 12.831 45.5908 6.59807C43.4093 9.71453 40.864 10.8832 37.9554 10.1041C36.2959 9.65955 35.1097 8.36961 33.7968 6.94167C31.6579 4.61555 29.1823 1.92334 23.7754 1.92334ZM12.8677 15.9475C7.05021 15.9475 3.41432 19.064 1.95996 25.297C4.1415 22.1805 6.68665 21.0118 9.59536 21.7909C11.2549 22.2354 12.4411 23.5254 13.7541 24.9533C15.893 27.2794 18.3685 29.9717 23.7754 29.9717C29.5928 29.9717 33.2286 26.8552 34.6831 20.6222C32.5015 23.7387 29.9564 24.9074 27.0477 24.1283C25.3881 23.6837 24.2019 22.3938 22.889 20.9658C20.7501 18.6397 18.2746 15.9475 12.8677 15.9475Z" stroke="url(#paint0_linear_120_73)" stroke-width="2" stroke-linejoin="round"/>
<defs>
<linearGradient id="paint0_linear_120_73" x1="23.7754" y1="1.92334" x2="23.7754" y2="29.9717" gradientUnits="userSpaceOnUse">
<stop stop-color="#EE7AF9"/>
<stop offset="1" stop-color="#F9C866"/>
</linearGradient>
</defs>
</svg>
