<svg width="31" height="36" viewBox="0 0 31 36" fill="none" xmlns="http://www.w3.org/2000/svg">
<path d="M11.2583 28.919C11.9325 28.7066 12.3069 27.988 12.0945 27.3137C11.8822 26.6395 11.1634 26.265 10.4892 26.4774L11.2583 28.919ZM1.91938 21.3406L0.681416 21.0156L0.0313721 23.4914L1.26933 23.8165L1.91938 21.3406ZM19.8332 34.0978V35.3777H22.393V34.0978H19.8332ZM19.9932 21.7786L19.8564 20.506C19.3656 20.5588 18.9489 20.889 18.7854 21.3548C18.622 21.8206 18.741 22.3388 19.0912 22.6866L19.9932 21.7786ZM28.7926 12.1152H30.0725V12.1111L28.7926 12.1152ZM26.66 6.97958L25.4669 6.51622C25.2833 6.98851 25.3959 7.52454 25.7536 7.88333L26.66 6.97958ZM26.532 1.8167L27.7006 1.2948C27.5465 0.94943 27.2472 0.689965 26.8835 0.586036L26.532 1.8167ZM20.9707 3.84378L20.6479 5.08231C20.9949 5.17277 21.3639 5.11349 21.6651 4.91891L20.9707 3.84378ZM11.0161 3.84378L10.3219 4.91904C10.6231 5.11351 10.992 5.17275 11.339 5.08231L11.0161 3.84378ZM5.45492 1.8167L5.10297 0.586138C4.73942 0.690093 4.44043 0.949532 4.28622 1.2948L5.45492 1.8167ZM5.32692 6.97958L6.23316 7.8834C6.59097 7.52462 6.70345 6.98854 6.52001 6.51622L5.32692 6.97958ZM3.19425 12.1568H4.47417V12.1536L3.19425 12.1568ZM11.9937 21.7786L12.8972 22.6853C13.2446 22.339 13.3636 21.8247 13.2036 21.3611C13.0436 20.8975 12.6327 20.566 12.1458 20.5078L11.9937 21.7786ZM10.8738 25.1384H12.1537C12.1537 25.1072 12.1525 25.0759 12.1502 25.0447L10.8738 25.1384ZM9.59383 34.0978V35.3777H12.1537V34.0978H9.59383ZM10.4892 26.4774C8.94563 26.9636 7.96655 26.9093 7.31773 26.6953C6.67271 26.4823 6.17817 26.0543 5.70647 25.4392C5.46759 25.1279 5.24749 24.7859 5.01637 24.4117C4.79663 24.0558 4.54787 23.6388 4.29618 23.2677C3.80774 22.5473 3.08712 21.6472 1.91938 21.3406L1.26933 23.8165C1.47271 23.87 1.74042 24.0597 2.17751 24.7043C2.38859 25.0155 2.58691 25.3496 2.83854 25.7571C3.0788 26.1459 3.35434 26.5788 3.67542 26.9973C4.32365 27.8424 5.20625 28.694 6.51548 29.1261C7.82095 29.5569 9.37328 29.5126 11.2583 28.919L10.4892 26.4774ZM22.393 24.9784C22.393 24.1659 22.3574 23.4236 22.1268 22.7311C21.8813 21.9939 21.4568 21.4285 20.8952 20.8705L19.0912 22.6866C19.4878 23.0808 19.6233 23.3153 19.6982 23.54C19.7879 23.8096 19.8332 24.191 19.8332 24.9784H22.393ZM20.13 23.0511C22.4414 22.8028 24.9631 22.2198 26.905 20.5389C28.9024 18.8098 30.0725 16.1136 30.0725 12.1152H27.5127C27.5127 15.5948 26.5156 17.4903 25.2296 18.6034C23.8882 19.7647 22.0103 20.2745 19.8564 20.506L20.13 23.0511ZM30.0725 12.1111C30.0651 9.84767 29.1645 7.67864 27.5662 6.07583L25.7536 7.88333C26.8753 9.0083 27.5076 10.5307 27.5127 12.1194L30.0725 12.1111ZM27.8531 7.44293C28.2353 6.45893 28.4186 5.40892 28.3922 4.3536L25.8332 4.41706C25.8511 5.13412 25.7264 5.84759 25.4669 6.51622L27.8531 7.44293ZM28.3922 4.3536C28.3661 3.29831 28.1311 2.25866 27.7006 1.2948L25.3632 2.33863C25.6558 2.99356 25.8155 3.7 25.8332 4.41706L28.3922 4.3536ZM26.532 1.8167C26.8835 0.586036 26.8847 0.586394 26.8835 0.586036C26.883 0.585934 26.8796 0.584884 26.8786 0.584654C26.8771 0.584193 26.8753 0.583732 26.8737 0.583246C26.8701 0.582324 26.8668 0.581351 26.863 0.580379C26.8558 0.578433 26.8481 0.576411 26.8399 0.574363C26.8238 0.570267 26.8059 0.565993 26.7859 0.561666C26.7465 0.553014 26.7002 0.544157 26.6467 0.53594C26.5397 0.51948 26.4053 0.50576 26.243 0.501434C25.9176 0.49273 25.485 0.521861 24.9393 0.638436C23.8498 0.871201 22.3162 1.45098 20.2763 2.76865L21.6651 4.91891C23.5065 3.72956 24.7534 3.29577 25.4743 3.14177C25.8337 3.06498 26.0638 3.05738 26.1746 3.06035C26.2304 3.06183 26.2576 3.06603 26.2576 3.06603C26.2578 3.06605 26.2512 3.06506 26.2381 3.06219C26.2317 3.06078 26.2235 3.05889 26.2141 3.05645C26.2092 3.05523 26.2038 3.05387 26.1982 3.05238C26.1954 3.05162 26.1926 3.05082 26.1895 3.05C26.1882 3.04957 26.1867 3.04916 26.1851 3.04872C26.1844 3.04849 26.1831 3.04816 26.1826 3.04806C26.1816 3.04773 26.1803 3.04739 26.532 1.8167ZM21.2935 2.60526C17.8182 1.69938 14.1687 1.69938 10.6933 2.60526L11.339 5.08231C14.3909 4.28679 17.5959 4.28679 20.6479 5.08231L21.2935 2.60526ZM11.7104 2.76852C9.66973 1.45095 8.13611 0.871227 7.0469 0.638461C6.50133 0.521861 6.06889 0.49273 5.74361 0.501434C5.5813 0.50576 5.44698 0.51948 5.33995 0.535966C5.28651 0.544183 5.24007 0.553065 5.20055 0.561717C5.18078 0.566044 5.16279 0.570319 5.14653 0.57444C5.13839 0.576488 5.13069 0.57851 5.12344 0.580456C5.11981 0.581428 5.1163 0.582401 5.11287 0.583348C5.11118 0.583809 5.10949 0.584295 5.10785 0.584756C5.10701 0.584986 5.10826 0.584628 5.10785 0.584756C5.10663 0.585089 5.10297 0.586138 5.45492 1.8167C5.80684 3.04729 5.80564 3.04762 5.80446 3.04798C5.80408 3.04808 5.80526 3.04778 5.80446 3.04798C5.80293 3.04844 5.79904 3.04949 5.79755 3.0499C5.79456 3.05075 5.79164 3.05154 5.78882 3.05231C5.78322 3.05382 5.77799 3.05517 5.77316 3.05638C5.76348 3.05884 5.75536 3.06073 5.74884 3.06214C5.76251 3.06091 5.78409 3.06109 5.81199 3.06035C5.92275 3.0574 6.15257 3.06495 6.51195 3.14177C7.23259 3.29577 8.47962 3.72959 10.3219 4.91904L11.7104 2.76852ZM4.28622 1.2948C3.85579 2.25866 3.62067 3.29831 3.59451 4.3536L6.15357 4.41706C6.17134 3.7 6.3311 2.99356 6.62358 2.33863L4.28622 1.2948ZM3.59451 4.3536C3.56834 5.40892 3.75165 6.45893 4.13381 7.44293L6.52001 6.51622C6.26034 5.84759 6.13578 5.13412 6.15357 4.41706L3.59451 4.3536ZM4.42067 6.07575C3.6233 6.87527 2.99149 7.82422 2.56141 8.86828L4.92828 9.84326C5.23014 9.11051 5.67355 8.44452 6.23316 7.8834L4.42067 6.07575ZM2.56141 8.86828C2.13133 9.91233 1.91144 11.0309 1.91433 12.1601L4.47417 12.1536C4.47215 11.3611 4.62645 10.576 4.92828 9.84326L2.56141 8.86828ZM1.91433 12.1568C1.91433 16.132 3.08689 18.8047 5.0853 20.5219C7.02381 22.1877 9.54113 22.7741 11.8416 23.0496L12.1458 20.5078C9.98091 20.2487 8.09853 19.7361 6.75365 18.5804C5.46866 17.4762 4.47417 15.6052 4.47417 12.1568H1.91433ZM11.0902 20.8721C9.81139 22.1465 9.48205 23.6629 9.59727 25.2321L12.1502 25.0447C12.0735 23.9995 12.2849 23.2953 12.8972 22.6853L11.0902 20.8721ZM9.59383 25.1384V34.0978H12.1537V25.1384H9.59383ZM22.393 34.0978V30.2581H19.8332V34.0978H22.393ZM22.393 30.2581V24.9784H19.8332V30.2581H22.393Z" fill="#F9C866"/>
</svg>
