<svg width="46" height="46" viewBox="0 0 46 46" fill="none" xmlns="http://www.w3.org/2000/svg">
<path d="M45.064 20.7244L25.2657 0.9332C24.1295 -0.210155 22.2777 -0.210155 21.1329 0.9332L17.0299 5.04333L22.2465 10.2529C23.4636 9.84768 24.852 10.1197 25.8112 11.0874C26.7859 12.0621 27.058 13.4634 26.6457 14.6733L31.664 19.6987C32.881 19.2779 34.2836 19.5513 35.2499 20.5247C36.6157 21.882 36.6157 24.0808 35.2499 25.4395C33.8926 26.7968 31.7008 26.7968 30.3421 25.4395C29.3234 24.4209 29.0656 22.9162 29.5742 21.6694L24.8733 16.9912V29.3216C25.2048 29.4845 25.5222 29.7055 25.7956 29.9789C27.1458 31.3447 27.1458 33.5351 25.7956 34.8938C24.4383 36.2511 22.2309 36.2511 20.8666 34.8938C19.5093 33.5365 19.5093 31.3447 20.8666 29.9789C21.2137 29.6389 21.5976 29.3881 22.0099 29.2195V16.7716C21.6047 16.5945 21.2123 16.3508 20.8737 16.0122C19.8479 14.9864 19.5971 13.4818 20.1284 12.2194L15.0067 7.06935L1.42953 20.6394C0.300345 21.7757 0.300345 23.6274 1.42953 24.7722L21.2278 44.5635C22.3712 45.7068 24.2159 45.7068 25.3606 44.5635L45.0626 24.8615C46.206 23.7252 46.206 21.8735 45.0626 20.7287L45.064 20.7244Z" fill="url(#paint0_linear_120_69)"/>
<defs>
<linearGradient id="paint0_linear_120_69" x1="23.2514" y1="0.0756836" x2="23.2514" y2="45.421" gradientUnits="userSpaceOnUse">
<stop stop-color="#F9C866"/>
<stop offset="1" stop-color="#EE7AF9"/>
</linearGradient>
</defs>
</svg>
