<svg width="19" height="13" viewBox="0 0 19 13" fill="none" xmlns="http://www.w3.org/2000/svg">
<path fill-rule="evenodd" clip-rule="evenodd" d="M9.67877 1.24121C7.44112 1.24121 6.04261 2.43994 5.4832 4.8374C6.32231 3.63867 7.30128 3.18915 8.42009 3.48882C9.05844 3.65981 9.51471 4.15599 10.0197 4.70524C10.8424 5.59996 11.7946 6.6355 13.8743 6.6355C16.112 6.6355 17.5105 5.43677 18.0699 3.03931C17.2308 4.23803 16.2518 4.68756 15.133 4.38788C14.4947 4.21689 14.0384 3.72072 13.5334 3.17147C12.7107 2.27675 11.7585 1.24121 9.67877 1.24121ZM5.4832 6.6355C3.24556 6.6355 1.84704 7.83422 1.28763 10.2317C2.12674 9.03296 3.10571 8.58343 4.22453 8.88311C4.86288 9.0541 5.31914 9.55028 5.82415 10.0995C6.64686 10.9942 7.59903 12.0298 9.67877 12.0298C11.9164 12.0298 13.3149 10.8311 13.8743 8.43359C13.0352 9.63232 12.0563 10.0819 10.9374 9.78219C10.2991 9.61118 9.84282 9.11501 9.33781 8.56575C8.51511 7.67104 7.56293 6.6355 5.4832 6.6355Z" stroke="white" stroke-linejoin="round"/>
</svg>
