<svg width="47" height="44" viewBox="0 0 47 44" fill="none" xmlns="http://www.w3.org/2000/svg">
<path d="M32.2587 30.4287C33.8984 30.2889 35.1638 28.8469 35.0833 27.1253C34.9943 25.4037 33.582 24.0225 31.8689 24.0225H31.7503C29.9778 24.0804 28.5882 25.5746 28.6475 27.3541C28.7054 28.2594 29.0726 28.9867 29.581 29.5234C27.6024 33.3634 24.645 36.1824 20.1511 38.5564C17.1359 40.1311 13.9497 40.7271 10.8469 40.3006C8.2497 39.9405 6.22023 38.7796 4.97741 36.9168C3.1146 34.0922 2.94512 31.0543 4.49865 28.0023C5.62989 25.8034 7.32324 24.1906 8.44742 23.4039C8.1692 22.6695 7.83025 21.4338 7.66077 20.4988C-0.69436 26.4799 0.158666 34.667 2.69656 38.5296C4.58762 41.3542 8.44742 43.1563 12.6772 43.1563C13.8113 43.1563 14.9948 43.0758 16.1501 42.7877C23.4926 41.3754 29.0457 36.9761 32.229 30.4894L32.2587 30.4287ZM42.3284 23.3757C37.9601 18.2406 31.5229 15.416 24.1903 15.416H23.2257C22.7554 14.3779 21.651 13.7255 20.4081 13.7255H20.3276C18.5482 13.7255 17.1641 15.255 17.222 17.0288C17.2827 18.7193 18.7148 20.1316 20.4364 20.1316H20.5776C21.8487 20.0737 22.946 19.2857 23.4022 18.153H24.4459C28.7943 18.153 32.9069 19.4255 36.6651 21.9055C39.5334 23.7937 41.601 26.2822 42.7549 29.2452C43.7703 31.6644 43.711 34.0413 42.6659 36.0199C41.063 39.1157 38.3485 40.7554 34.774 40.7554C32.5157 40.7554 30.3168 40.0492 29.1827 39.5422C28.5062 40.1015 27.3736 41.035 26.5559 41.6027C29.0429 42.7269 31.5511 43.3752 33.9789 43.3752C39.4812 43.3752 43.5712 40.278 45.1233 37.2854C46.8138 33.9015 46.6754 28.2001 42.3566 23.3164L42.3284 23.3757ZM13.156 31.4441C13.2167 33.1346 14.6488 34.5469 16.3775 34.5469H16.489C18.2982 34.489 19.6738 32.9948 19.5918 31.2153C19.5918 29.522 18.1287 28.1097 16.4071 28.1097H16.2885C16.1797 28.1097 16.0103 28.1097 15.8634 28.1704C13.5246 24.2202 12.5374 19.9833 12.9046 15.4146C13.1264 11.9728 14.259 8.9858 16.2885 6.50016C17.9818 4.38878 21.1651 3.33662 23.3429 3.28578C29.4341 3.16715 31.9791 10.7653 32.1711 13.782L34.9957 14.6279C34.3404 5.37456 28.5896 0.520508 23.0873 0.520508C17.9239 0.520508 13.156 4.27156 11.2367 9.77386C8.6169 17.1164 10.3385 24.1623 13.5529 29.8115C13.2746 30.1716 13.1052 30.8269 13.156 31.4441Z" fill="url(#paint0_linear_120_67)"/>
<defs>
<linearGradient id="paint0_linear_120_67" x1="23.5354" y1="0.520508" x2="23.5354" y2="43.3752" gradientUnits="userSpaceOnUse">
<stop stop-color="#F9C866"/>
<stop offset="1" stop-color="#EE7AF9"/>
</linearGradient>
</defs>
</svg>
